<svg width="57" height="54" viewBox="0 0 57 54" fill="none" xmlns="http://www.w3.org/2000/svg">
<path d="M2.81187 54H38.7738C40.19 54 41.3425 52.8643 41.3425 51.4688V38.8125C41.3425 38.7956 41.334 38.7821 41.3323 38.7653C41.4282 38.7079 41.5229 38.6488 41.6165 38.5881L55.2923 52.0644C55.3712 52.1451 55.4656 52.2095 55.57 52.2539C55.6744 52.2982 55.7867 52.3217 55.9004 52.3228C56.0141 52.3239 56.1269 52.3027 56.2321 52.2605C56.3374 52.2182 56.4331 52.1557 56.5136 52.0766C56.5941 51.9975 56.6578 51.9033 56.701 51.7997C56.7442 51.6961 56.7661 51.585 56.7652 51.473C56.7644 51.361 56.741 51.2502 56.6962 51.1472C56.6515 51.0442 56.5864 50.951 56.5048 50.8731L42.954 37.5199C44.0658 36.4975 44.9526 35.2607 45.5591 33.8865C46.1657 32.5123 46.4791 31.0298 46.4799 29.5312C46.4773 27.69 46.0044 25.8791 45.1048 24.2653C44.2052 22.6516 42.9078 21.287 41.3323 20.2972C41.334 20.2804 41.3425 20.2669 41.3425 20.25V16.0312C41.3425 16.0026 41.3288 15.9789 41.3271 15.9519C41.3225 15.9148 41.3151 15.8782 41.3049 15.8422C41.2773 15.7252 41.2248 15.6153 41.1507 15.5199C41.1387 15.5047 41.1405 15.4862 41.1285 15.471L27.4287 0.2835L27.4116 0.273375C27.3067 0.166115 27.175 0.0880985 27.0297 0.04725C26.9988 0.03825 26.9669 0.0320625 26.9338 0.0286875C26.8841 0.02025 26.8379 0 26.7865 0H2.81187C1.39566 0 0.243164 1.13569 0.243164 2.53125V51.4688C0.243164 52.8643 1.39566 54 2.81187 54ZM44.7675 29.5312C44.7675 34.6494 40.5411 38.8125 35.3489 38.8125C30.1567 38.8125 25.9303 34.6494 25.9303 29.5312C25.9303 24.4131 30.1567 20.25 35.3489 20.25C40.5411 20.25 44.7675 24.4131 44.7675 29.5312ZM27.6427 3.06281L38.5803 15.1875H28.499C28.1222 15.1875 27.6427 14.4788 27.6427 13.9219V3.06281ZM1.95564 2.53125C1.95564 2.30747 2.04585 2.09286 2.20642 1.93463C2.367 1.77639 2.58479 1.6875 2.81187 1.6875H25.9303V13.9219C25.9303 15.2871 27.0519 16.875 28.499 16.875H39.6301V19.4079C37.5616 18.5553 35.2795 18.3406 33.0847 18.7922C30.8899 19.2438 28.8856 20.3405 27.3362 21.9375H9.66177C9.43468 21.9375 9.21689 22.0264 9.05632 22.1846C8.89574 22.3429 8.80553 22.5575 8.80553 22.7812C8.80553 23.005 8.89574 23.2196 9.05632 23.3779C9.21689 23.5361 9.43468 23.625 9.66177 23.625H25.9851C24.9925 25.1451 24.4004 26.8851 24.2623 28.6875H9.66177C9.43468 28.6875 9.21689 28.7764 9.05632 28.9346C8.89574 29.0929 8.80553 29.3075 8.80553 29.5312C8.80553 29.755 8.89574 29.9696 9.05632 30.1279C9.21689 30.2861 9.43468 30.375 9.66177 30.375H24.2606C24.3994 32.1773 24.9915 33.9171 25.9834 35.4375H9.66177C9.43468 35.4375 9.21689 35.5264 9.05632 35.6846C8.89574 35.8429 8.80553 36.0575 8.80553 36.2812C8.80553 36.505 8.89574 36.7196 9.05632 36.8779C9.21689 37.0361 9.43468 37.125 9.66177 37.125H27.2146C27.2506 37.125 27.2814 37.1098 27.3174 37.1048C28.8667 38.7077 30.8733 39.8095 33.0718 40.2645C35.2703 40.7195 37.5572 40.5062 39.6301 39.6529V51.4688C39.6301 51.6925 39.5398 51.9071 39.3793 52.0654C39.2187 52.2236 39.0009 52.3125 38.7738 52.3125H2.81187C2.33238 52.3125 1.95564 51.9412 1.95564 51.4688V2.53125Z" fill="#5A5EFF"/>
<path d="M9.6619 16.875H19.9367C20.1638 16.875 20.3816 16.7861 20.5422 16.6279C20.7028 16.4696 20.793 16.255 20.793 16.0312C20.793 15.8075 20.7028 15.5929 20.5422 15.4346C20.3816 15.2764 20.1638 15.1875 19.9367 15.1875H9.6619C9.43481 15.1875 9.21703 15.2764 9.05645 15.4346C8.89587 15.5929 8.80566 15.8075 8.80566 16.0312C8.80566 16.255 8.89587 16.4696 9.05645 16.6279C9.21703 16.7861 9.43481 16.875 9.6619 16.875ZM9.6619 43.875H31.9241C32.1511 43.875 32.3689 43.7861 32.5295 43.6279C32.6901 43.4696 32.7803 43.255 32.7803 43.0312C32.7803 42.8075 32.6901 42.5929 32.5295 42.4346C32.3689 42.2764 32.1511 42.1875 31.9241 42.1875H9.6619C9.43481 42.1875 9.21703 42.2764 9.05645 42.4346C8.89587 42.5929 8.80566 42.8075 8.80566 43.0312C8.80566 43.255 8.89587 43.4696 9.05645 43.6279C9.21703 43.7861 9.43481 43.875 9.6619 43.875Z" fill="#5A5EFF"/>
</svg>
