<svg width="69" height="62" viewBox="0 0 69 62" fill="none" xmlns="http://www.w3.org/2000/svg">
<g clip-path="url(#clip0_2343_76)">
<path d="M6.43848 35.9702C12.7536 36.7251 18.6326 39.5952 23.1295 44.1185C27.6264 48.6419 30.4796 54.5554 31.2301 60.9077C34.3607 59.0923 36.9793 56.5039 38.8384 53.387C40.6976 50.2702 41.7359 46.728 41.8551 43.0952C47.802 40.9909 52.995 37.1601 56.7774 32.0871C60.5599 27.0142 62.7619 20.927 63.1051 14.5952C63.1051 11.7607 61.9857 9.04231 59.9932 7.03801C58.0006 5.03372 55.2981 3.90771 52.4801 3.90771C46.1854 4.25295 40.1338 6.46796 35.0905 10.2727C30.0472 14.0774 26.2388 19.3009 24.1468 25.2827C20.5352 25.4027 17.0137 26.4471 13.9152 28.3172C10.8166 30.1872 8.24328 32.8212 6.43848 35.9702Z" stroke="#5A5EFF" stroke-width="2" stroke-linecap="round" stroke-linejoin="round"/>
<path d="M17.0638 39.5327C13.3778 41.6259 10.3972 44.7788 8.50418 48.5871C6.61117 52.3954 5.89199 56.6856 6.43884 60.9077C10.6363 61.4578 14.9014 60.7344 18.6874 58.8302C22.4734 56.9261 25.6079 53.928 27.6888 50.2202M41.8555 21.7202C41.8555 22.665 42.2286 23.5712 42.8928 24.2393C43.557 24.9074 44.4579 25.2827 45.3972 25.2827C46.3365 25.2827 47.2373 24.9074 47.9015 24.2393C48.5657 23.5712 48.9388 22.665 48.9388 21.7202C48.9388 20.7754 48.5657 19.8692 47.9015 19.2011C47.2373 18.533 46.3365 18.1577 45.3972 18.1577C44.4579 18.1577 43.557 18.533 42.8928 19.2011C42.2286 19.8692 41.8555 20.7754 41.8555 21.7202Z" stroke="#5A5EFF" stroke-width="2" stroke-linecap="round" stroke-linejoin="round"/>
</g>
<defs>
<clipPath id="clip0_2343_76">
<rect width="69" height="62" fill="white"/>
</clipPath>
</defs>
</svg>
