<svg width="71" height="55" viewBox="0 0 71 55" fill="none" xmlns="http://www.w3.org/2000/svg">
<g clip-path="url(#clip0_2339_18)">
<path d="M18.0003 37.6667V12.0833H48.8337L52.1253 8.75H14.667V37.6667H18.0003Z" fill="#5A5EFF"/>
<path d="M10.4997 4.58341H60.4997V37.9167H64.6663V3.54175C64.6663 2.71295 64.3371 1.91809 63.7511 1.33204C63.165 0.745988 62.3701 0.416748 61.5413 0.416748H9.45801C8.62921 0.416748 7.83435 0.745988 7.2483 1.33204C6.66225 1.91809 6.33301 2.71295 6.33301 3.54175V37.9167H10.4997V4.58341Z" fill="#5A5EFF"/>
<path d="M0.0830078 42.0833V49.1666C0.0830078 50.6032 0.653691 51.9809 1.66951 52.9967C2.68533 54.0126 4.06308 54.5833 5.49967 54.5833H65.3747C66.8113 54.5833 68.189 54.0126 69.2048 52.9967C70.2207 51.9809 70.7913 50.6032 70.7913 49.1666V42.0833H0.0830078ZM66.7497 49.1666C66.7497 49.4981 66.618 49.816 66.3836 50.0505C66.1491 50.2849 65.8312 50.4166 65.4997 50.4166H5.41634C5.08482 50.4166 4.76688 50.2849 4.53246 50.0505C4.29804 49.816 4.16634 49.4981 4.16634 49.1666V45.2708H24.8955C25.156 45.8853 25.5907 46.4101 26.1461 46.7803C26.7014 47.1506 27.3531 47.35 28.0205 47.3541H42.8747C43.5421 47.35 44.1937 47.1506 44.7491 46.7803C45.3045 46.4101 45.7392 45.8853 45.9997 45.2708H66.7497V49.1666Z" fill="#5A5EFF"/>
</g>
<defs>
<clipPath id="clip0_2339_18">
<rect width="71" height="55" fill="white"/>
</clipPath>
</defs>
</svg>
