<svg width="53" height="53" viewBox="0 0 53 53" fill="none" xmlns="http://www.w3.org/2000/svg">
<path d="M7.27865 45.4961L21.3325 31.4423M39.0301 25.1927L34.8232 37.8133C34.7561 38.0156 34.6411 38.1987 34.4881 38.3471C34.3351 38.4955 34.1485 38.6048 33.9443 38.6657L8.15536 46.3308C7.92302 46.3998 7.67621 46.4038 7.44178 46.3423C7.20735 46.2807 6.99429 46.1561 6.82578 45.9819C6.65727 45.8077 6.53977 45.5906 6.48606 45.3543C6.43236 45.1179 6.44451 44.8714 6.52119 44.6415L14.8952 19.5239C14.9552 19.3435 15.0533 19.1782 15.1829 19.0391C15.3124 18.9001 15.4704 18.7905 15.646 18.7178L27.5423 13.8198C27.7842 13.7199 28.0502 13.6938 28.3068 13.7449C28.5634 13.796 28.7992 13.9219 28.9844 14.1068L38.7099 23.8368C38.8839 24.0107 39.006 24.2297 39.0626 24.4692C39.1191 24.7087 39.1079 24.9592 39.0301 25.1927Z" stroke="white" stroke-width="2" stroke-linecap="round" stroke-linejoin="round"/>
<path d="M39.2903 24.4153L45.5355 18.1679C46.3635 17.3397 46.8286 16.2165 46.8286 15.0454C46.8286 13.8742 46.3635 12.751 45.5355 11.9228L40.8538 7.23669C40.4437 6.82637 39.9567 6.50088 39.4207 6.27881C38.8848 6.05674 38.3103 5.94244 37.7302 5.94244C37.15 5.94244 36.5755 6.05674 36.0396 6.27881C35.5036 6.50088 35.0166 6.82637 34.6065 7.23669L28.3613 13.4841M26.016 26.7561C25.7084 26.4486 25.3431 26.2047 24.9411 26.0383C24.5392 25.8719 24.1084 25.7863 23.6733 25.7864C23.2383 25.7865 22.8075 25.8723 22.4056 26.0389C22.0038 26.2055 21.6386 26.4496 21.3311 26.7573C21.0235 27.0649 20.7796 27.4302 20.6132 27.8322C20.4468 28.2341 20.3612 28.6649 20.3613 29.1C20.3614 29.535 20.4472 29.9658 20.6138 30.3677C20.7804 30.7695 21.0245 31.1347 21.3322 31.4422C21.9536 32.0634 22.7963 32.4122 23.6749 32.412C24.5535 32.4118 25.396 32.0625 26.0171 31.4411C26.6383 30.8197 26.9871 29.977 26.9869 29.0984C26.9867 28.2198 26.6375 27.3773 26.016 26.7561Z" stroke="white" stroke-width="2" stroke-linecap="round" stroke-linejoin="round"/>
</svg>
