<svg width="370" height="231" viewBox="0 0 370 231" fill="none" xmlns="http://www.w3.org/2000/svg">
<g clip-path="url(#clip0_2395_356)">
<mask id="mask0_2395_356" style="mask-type:luminance" maskUnits="userSpaceOnUse" x="0" y="0" width="370" height="231">
<path d="M370 0H0V231H370V0Z" fill="white"/>
</mask>
<g mask="url(#mask0_2395_356)">
<path d="M70.8775 104.139H39.7295V16.0082H71.1348C79.9728 16.0082 87.5811 17.7725 93.9594 21.3012C100.338 24.8013 105.243 29.8361 108.675 36.4058C112.136 42.9755 113.867 50.8361 113.867 59.9877C113.867 69.168 112.136 77.0574 108.675 83.6557C105.243 90.2542 100.309 95.3176 93.8737 98.8462C87.4667 102.375 79.8013 104.139 70.8775 104.139ZM58.3067 88.1742H70.1052C75.5968 88.1742 80.216 87.1987 83.963 85.2479C87.7385 83.2685 90.5701 80.2131 92.4579 76.0819C94.3741 71.9221 95.3324 66.5574 95.3324 59.9877C95.3324 53.4754 94.3741 48.1537 92.4579 44.0225C90.5701 39.8914 87.7527 36.8504 84.0058 34.8996C80.259 32.9488 75.6397 31.9734 70.148 31.9734H58.3067V88.1742ZM146.205 16.0082V104.139H127.628V16.0082H146.205ZM209.155 41.3545C208.813 37.8833 207.339 35.1864 204.737 33.2644C202.134 31.3422 198.602 30.3812 194.139 30.3812C191.108 30.3812 188.547 30.8114 186.459 31.6722C184.372 32.5042 182.77 33.666 181.654 35.1578C180.567 36.6497 180.024 38.3422 180.024 40.2357C179.967 41.8135 180.296 43.1906 181.011 44.3668C181.754 45.543 182.77 46.5615 184.057 47.4222C185.344 48.254 186.831 48.9856 188.519 49.6167C190.207 50.2192 192.008 50.7357 193.924 51.1659L201.819 53.0594C205.651 53.9201 209.17 55.0676 212.373 56.502C215.577 57.9365 218.352 59.7008 220.696 61.7952C223.043 63.8893 224.859 66.3567 226.144 69.1968C227.46 72.037 228.132 75.2931 228.162 78.9651C228.132 84.3586 226.76 89.0348 224.043 92.9938C221.355 96.9242 217.464 99.9795 212.373 102.16C207.31 104.311 201.203 105.387 194.053 105.387C186.96 105.387 180.782 104.297 175.519 102.117C170.285 99.9365 166.195 96.7091 163.249 92.4345C160.331 88.1312 158.801 82.8093 158.658 76.4693H176.635C176.835 79.4242 177.679 81.8914 179.166 83.871C180.682 85.8218 182.698 87.2993 185.215 88.3034C187.761 89.2787 190.636 89.7664 193.839 89.7664C196.984 89.7664 199.716 89.3074 202.034 88.3893C204.379 87.4714 206.195 86.1946 207.482 84.5594C208.769 82.9243 209.413 81.045 209.413 78.9221C209.413 76.9427 208.826 75.2787 207.654 73.9304C206.51 72.5819 204.822 71.4345 202.591 70.4878C200.39 69.541 197.686 68.6803 194.483 67.9057L184.915 65.4959C177.507 63.6886 171.658 60.8626 167.367 57.0184C163.077 53.1741 160.946 47.9959 160.975 41.4836C160.946 36.1475 162.362 31.4857 165.222 27.4979C168.111 23.5103 172.072 20.3975 177.107 18.1598C182.14 15.9221 187.861 14.8033 194.268 14.8033C200.79 14.8033 206.482 15.9221 211.344 18.1598C216.234 20.3975 220.039 23.5103 222.756 27.4979C225.472 31.4857 226.875 36.1046 226.96 41.3545H209.155ZM253.796 104.139H233.89L264.222 16.0082H288.163L318.452 104.139H298.545L276.536 36.1475H275.849L253.796 104.139ZM252.552 69.4979H299.574V84.0431H252.552V69.4979Z" fill="#5A5EFF"/>
<mask id="mask1_2395_356" style="mask-type:luminance" maskUnits="userSpaceOnUse" x="33" y="7" width="294" height="105">
<path d="M326.582 7.57379H33.9805V111.713H326.582V7.57379Z" fill="white"/>
<path d="M70.8784 104.139H39.7305V16.0082H71.1357C79.9738 16.0082 87.582 17.7725 93.9604 21.3012C100.339 24.8013 105.244 29.8361 108.676 36.4058C112.137 42.9755 113.868 50.8361 113.868 59.9877C113.868 69.168 112.137 77.0574 108.676 83.6557C105.244 90.2542 100.31 95.3176 93.8747 98.8462C87.4676 102.375 79.8022 104.139 70.8784 104.139ZM58.3077 88.1742H70.1061C75.5978 88.1742 80.217 87.1987 83.964 85.2479C87.7395 83.2685 90.5711 80.2131 92.4589 76.0819C94.3751 71.9221 95.3334 66.5574 95.3334 59.9877C95.3334 53.4754 94.3751 48.1537 92.4589 44.0225C90.5711 39.8914 87.7536 36.8504 84.0068 34.8996C80.26 32.9488 75.6407 31.9734 70.149 31.9734H58.3077V88.1742ZM146.206 16.0082V104.139H127.629V16.0082H146.206ZM209.156 41.3545C208.814 37.8833 207.34 35.1864 204.738 33.2644C202.135 31.3422 198.603 30.3812 194.14 30.3812C191.109 30.3812 188.548 30.8114 186.46 31.6722C184.373 32.5042 182.771 33.666 181.655 35.1578C180.568 36.6497 180.025 38.3422 180.025 40.2357C179.968 41.8135 180.297 43.1906 181.012 44.3668C181.755 45.543 182.771 46.5615 184.058 47.4222C185.345 48.254 186.832 48.9856 188.52 49.6167C190.208 50.2192 192.009 50.7357 193.925 51.1659L201.82 53.0594C205.652 53.9201 209.171 55.0676 212.374 56.502C215.578 57.9365 218.353 59.7008 220.697 61.7952C223.044 63.8893 224.86 66.3567 226.145 69.1968C227.461 72.037 228.133 75.2931 228.163 78.9651C228.133 84.3586 226.761 89.0348 224.044 92.9938C221.356 96.9242 217.465 99.9795 212.374 102.16C207.311 104.311 201.204 105.387 194.053 105.387C186.961 105.387 180.783 104.297 175.52 102.117C170.286 99.9365 166.196 96.7091 163.25 92.4345C160.332 88.1312 158.802 82.8093 158.659 76.4693H176.636C176.836 79.4242 177.68 81.8914 179.167 83.871C180.683 85.8218 182.699 87.2993 185.216 88.3034C187.762 89.2787 190.637 89.7664 193.84 89.7664C196.985 89.7664 199.717 89.3074 202.035 88.3893C204.38 87.4714 206.196 86.1946 207.483 84.5594C208.77 82.9243 209.414 81.045 209.414 78.9221C209.414 76.9427 208.827 75.2787 207.655 73.9304C206.511 72.5819 204.823 71.4345 202.592 70.4878C200.391 69.541 197.687 68.6803 194.484 67.9057L184.916 65.4959C177.508 63.6886 171.659 60.8626 167.368 57.0184C163.078 53.1741 160.947 47.9959 160.976 41.4836C160.947 36.1475 162.363 31.4857 165.223 27.4979C168.112 23.5103 172.073 20.3975 177.107 18.1598C182.141 15.9221 187.862 14.8033 194.269 14.8033C200.791 14.8033 206.482 15.9221 211.345 18.1598C216.235 20.3975 220.04 23.5103 222.757 27.4979C225.473 31.4857 226.876 36.1046 226.961 41.3545H209.156ZM253.797 104.139H233.891L264.223 16.0082H288.164L318.453 104.139H298.546L276.537 36.1475H275.85L253.797 104.139ZM252.553 69.4979H299.575V84.0431H252.553V69.4979Z" fill="black"/>
</mask>
<g mask="url(#mask1_2395_356)">
<path d="M39.7297 104.139H34.0664V109.82H39.7297V104.139ZM39.7297 16.0082V10.3279H34.0664V16.0082H39.7297ZM93.9596 21.3013L91.2244 26.2752L91.2416 26.2846L93.9596 21.3013ZM108.676 36.4058L103.659 39.0423L103.668 39.0595L108.676 36.4058ZM108.676 83.6557L103.664 81.011L103.655 81.0282L108.676 83.6557ZM93.8739 98.8463L91.1574 93.8622L91.148 93.8673L93.8739 98.8463ZM58.3069 88.1742H52.6436V93.8546H58.3069V88.1742ZM83.9632 85.2479L86.5722 90.2896L86.5866 90.282L83.9632 85.2479ZM92.4581 76.082L87.317 73.6993L87.3098 73.7154L92.4581 76.082ZM92.4581 44.0226L87.3098 46.3894L87.3166 46.4041L87.3234 46.4189L92.4581 44.0226ZM58.3069 31.9735V26.2931H52.6436V31.9735H58.3069ZM70.8776 104.139V98.4591H39.7297V104.139V109.82H70.8776V104.139ZM39.7297 104.139H45.3929V16.0082H39.7297H34.0664V104.139H39.7297ZM39.7297 16.0082V21.6885H71.1349V16.0082V10.3279H39.7297V16.0082ZM71.1349 16.0082V21.6885C79.2192 21.6885 85.8449 23.299 91.2244 26.2752L93.9596 21.3013L96.6948 16.3274C89.3176 12.2461 80.727 10.3279 71.1349 10.3279V16.0082ZM93.9596 21.3013L91.2416 26.2846C96.6221 29.2371 100.736 33.4471 103.659 39.0423L108.676 36.4058L113.692 33.7692C109.75 26.2252 104.054 20.3653 96.6778 16.318L93.9596 21.3013ZM108.676 36.4058L103.668 39.0595C106.61 44.6431 108.204 51.55 108.204 59.9877H113.867H119.53C119.53 50.1223 117.663 41.3078 113.683 33.752L108.676 36.4058ZM113.867 59.9877H108.204C108.204 68.4567 106.609 75.3956 103.664 81.011L108.676 83.6557L113.688 86.3005C117.664 78.719 119.53 69.8796 119.53 59.9877H113.867ZM108.676 83.6557L103.655 81.0282C100.735 86.6421 96.5968 90.8796 91.1574 93.8622L93.8739 98.8463L96.5904 103.831C104.022 99.7557 109.752 93.8663 113.696 86.2833L108.676 83.6557ZM93.8739 98.8463L91.148 93.8673C85.742 96.8447 79.0573 98.4591 70.8776 98.4591V104.139V109.82C80.5458 109.82 89.1919 107.905 96.5996 103.825L93.8739 98.8463ZM58.3069 88.1742V93.8546H70.1053V88.1742V82.4939H58.3069V88.1742ZM70.1053 88.1742V93.8546C76.2409 93.8546 81.8136 92.7672 86.5722 90.2896L83.9632 85.2479L81.3539 80.2065C78.6187 81.6305 74.9529 82.4939 70.1053 82.4939V88.1742ZM83.9632 85.2479L86.5866 90.282C91.5487 87.6804 95.2308 83.6474 97.6063 78.4488L92.4581 76.082L87.3098 73.7154C85.9098 76.7789 83.9286 78.8566 81.3396 80.214L83.9632 85.2479ZM92.4581 76.082L97.599 78.4647C99.9751 73.3069 100.996 67.0495 100.996 59.9877H95.3326H89.6693C89.6693 66.0653 88.7737 70.5372 87.317 73.6993L92.4581 76.082ZM95.3326 59.9877H100.996C100.996 52.9774 99.9734 46.7586 97.5928 41.6262L92.4581 44.0226L87.3234 46.4189C88.7752 49.549 89.6693 53.9736 89.6693 59.9877H95.3326ZM92.4581 44.0226L97.6063 41.6558C95.234 36.4641 91.5665 32.4358 86.6151 29.8581L84.006 34.8996L81.397 39.9413C83.9394 41.265 85.9066 43.3186 87.3098 46.3894L92.4581 44.0226ZM84.006 34.8996L86.6151 29.8581C81.8564 27.3805 76.284 26.2931 70.1482 26.2931V31.9735V37.6538C74.9958 37.6538 78.6618 38.5172 81.397 39.9413L84.006 34.8996ZM70.1482 31.9735V26.2931H58.3069V31.9735V37.6538H70.1482V31.9735ZM58.3069 31.9735H52.6436V88.1742H58.3069H63.9701V31.9735H58.3069ZM146.205 16.0082H151.869V10.3279H146.205V16.0082ZM146.205 104.139V109.82H151.869V104.139H146.205ZM127.628 104.139H121.965V109.82H127.628V104.139ZM127.628 16.0082V10.3279H121.965V16.0082H127.628ZM146.205 16.0082H140.542V104.139H146.205H151.869V16.0082H146.205ZM146.205 104.139V98.4591H127.628V104.139V109.82H146.205V104.139ZM127.628 104.139H133.292V16.0082H127.628H121.965V104.139H127.628ZM127.628 16.0082V21.6885H146.205V16.0082V10.3279H127.628V16.0082ZM209.155 41.3545L203.52 41.9152L204.026 47.0349H209.155V41.3545ZM186.46 31.6722L188.55 36.9511L188.581 36.9388L188.612 36.9261L186.46 31.6722ZM181.654 35.1579L177.124 31.7497L177.103 31.7779L177.082 31.8063L181.654 35.1579ZM180.024 40.2357L185.684 40.4421L185.687 40.3389V40.2357H180.024ZM181.011 44.3668L176.176 47.324L176.202 47.3668L176.228 47.4088L181.011 44.3668ZM184.057 47.4223L180.916 52.1485L180.952 52.1729L180.989 52.1969L184.057 47.4223ZM188.519 49.6168L186.54 54.9392L186.58 54.954L186.62 54.9684L188.519 49.6168ZM193.924 51.166L195.242 45.6415L195.202 45.6318L195.163 45.6229L193.924 51.166ZM201.819 53.0594L200.501 58.5841L200.541 58.5936L200.582 58.6027L201.819 53.0594ZM226.145 69.1968L220.989 71.5474L221 71.569L221.01 71.5903L226.145 69.1968ZM228.163 78.9651L233.826 78.9954V78.9581V78.9208L228.163 78.9651ZM224.043 92.9938L219.379 89.7729L219.373 89.7801L224.043 92.9938ZM212.373 102.16L214.582 107.39L214.597 107.384L212.373 102.16ZM175.519 102.117L173.347 107.363L173.357 107.367L175.519 102.117ZM163.249 92.4345L158.566 95.6285L158.578 95.6465L158.59 95.6645L163.249 92.4345ZM158.658 76.4694V70.789H152.865L152.996 76.5977L158.658 76.4694ZM176.635 76.4694L182.285 76.084L181.926 70.789H176.635V76.4694ZM179.166 83.871L174.643 87.2896L174.671 87.3266L174.699 87.3629L179.166 83.871ZM185.215 88.3034L183.122 93.5815L183.158 93.5957L183.194 93.6096L185.215 88.3034ZM202.034 88.3893L199.975 83.0977L199.952 83.1065L202.034 88.3893ZM207.654 73.9305L203.34 77.6119L203.363 77.6384L203.386 77.6645L207.654 73.9305ZM202.591 70.4878L200.36 75.7088L200.384 75.7192L202.591 70.4878ZM194.483 67.9057L193.103 73.4151L193.13 73.4217L193.156 73.4279L194.483 67.9057ZM184.915 65.4959L186.294 59.9866L186.274 59.9815L186.254 59.9765L184.915 65.4959ZM160.975 41.4837L166.638 41.5087L166.638 41.4808L166.638 41.4532L160.975 41.4837ZM165.222 27.4979L160.641 24.159L160.633 24.1698L160.625 24.1806L165.222 27.4979ZM211.345 18.1599L208.981 23.3227L208.994 23.328L211.345 18.1599ZM226.96 41.3545V47.0349H232.718L232.623 41.2614L226.96 41.3545ZM209.155 41.3545L214.792 40.7939C214.303 35.8584 212.096 31.6448 208.094 28.69L204.737 33.2644L201.379 37.8386C202.583 38.7283 203.322 39.9081 203.52 41.9152L209.155 41.3545ZM204.737 33.2644L208.094 28.69C204.211 25.8215 199.359 24.7009 194.14 24.7009V30.3813V36.0616C197.843 36.0616 200.058 36.8629 201.379 37.8386L204.737 33.2644ZM194.14 30.3813V24.7009C190.608 24.7009 187.269 25.1974 184.307 26.4183L186.46 31.6722L188.612 36.9261C189.826 36.4255 191.608 36.0616 194.14 36.0616V30.3813ZM186.46 31.6722L184.369 26.3931C181.514 27.5305 178.984 29.2613 177.124 31.7497L181.654 35.1579L186.185 38.5661C186.555 38.0707 187.229 37.4777 188.55 36.9511L186.46 31.6722ZM181.654 35.1579L177.082 31.8063C175.268 34.2965 174.361 37.1693 174.361 40.2357H180.024H185.687C185.687 39.5152 185.867 39.0027 186.227 38.5093L181.654 35.1579ZM180.024 40.2357L174.365 40.0293C174.273 42.5527 174.802 45.0638 176.176 47.324L181.011 44.3668L185.846 41.4096C185.79 41.3176 185.661 41.0743 185.684 40.4421L180.024 40.2357ZM181.011 44.3668L176.228 47.4088C177.442 49.328 179.045 50.898 180.916 52.1485L184.057 47.4223L187.198 42.6958C186.494 42.2251 186.067 41.758 185.794 41.3248L181.011 44.3668ZM184.057 47.4223L180.989 52.1969C182.672 53.2849 184.536 54.1896 186.54 54.9392L188.519 49.6168L190.498 44.2945C189.128 43.7817 188.016 43.2234 187.125 42.6474L184.057 47.4223ZM188.519 49.6168L186.62 54.9684C188.543 55.6549 190.568 56.2332 192.688 56.7092L193.924 51.166L195.163 45.6229C193.449 45.2382 191.87 44.7836 190.419 44.2653L188.519 49.6168ZM193.924 51.166L192.609 56.6907L200.501 58.5841L201.819 53.0594L203.137 47.5349L195.242 45.6415L193.924 51.166ZM201.819 53.0594L200.582 58.6027C204.09 59.3903 207.244 60.4258 210.065 61.689L212.373 56.5021L214.682 51.3152C211.095 49.7095 207.214 48.45 203.057 47.5164L201.819 53.0594ZM212.373 56.5021L210.065 61.689C212.798 62.9131 215.067 64.3741 216.93 66.0378L220.696 61.7952L224.463 57.5524C221.635 55.0276 218.356 52.9598 214.682 51.3152L212.373 56.5021ZM220.696 61.7952L216.93 66.0378C218.692 67.6107 220.032 69.4352 220.989 71.5474L226.145 69.1968L231.302 66.8461C229.684 63.2779 227.392 60.1681 224.463 57.5524L220.696 61.7952ZM226.145 69.1968L221.01 71.5903C221.931 73.5779 222.475 76.0106 222.499 79.0096L228.163 78.9651L233.826 78.9208C233.792 74.5755 232.991 70.4959 231.281 66.8032L226.145 69.1968ZM228.163 78.9651L222.499 78.935C222.475 83.3329 221.374 86.8653 219.379 89.7729L224.043 92.9938L228.708 96.2148C232.148 91.2045 233.792 85.3843 233.826 78.9954L228.163 78.9651ZM224.043 92.9938L219.373 89.7801C217.387 92.6825 214.418 95.1078 210.15 96.9358L212.373 102.16L214.597 107.384C220.511 104.851 225.321 101.166 228.714 96.2076L224.043 92.9938ZM212.373 102.16L210.165 96.9297C205.976 98.7095 200.664 99.707 194.053 99.707V105.387V111.068C201.745 111.068 208.645 109.913 214.582 107.39L212.373 102.16ZM194.053 105.387V99.707C187.526 99.707 182.112 98.7025 177.681 96.8667L175.519 102.117L173.357 107.367C179.452 109.892 186.395 111.068 194.053 111.068V105.387ZM175.519 102.117L177.691 96.8708C173.364 95.0683 170.177 92.4977 167.907 89.2045L163.249 92.4345L158.59 95.6645C162.213 100.921 167.206 104.805 173.347 107.363L175.519 102.117ZM163.249 92.4345L167.932 89.2404C165.751 86.0237 164.444 81.8269 164.32 76.3408L158.658 76.4694L152.996 76.5977C153.159 83.7921 154.912 90.2387 158.566 95.6285L163.249 92.4345ZM158.658 76.4694V82.1497H176.635V76.4694V70.789H158.658V76.4694ZM176.635 76.4694L170.985 76.8545C171.244 80.6916 172.375 84.2709 174.643 87.2896L179.166 83.871L183.689 80.4522C182.982 79.5119 182.425 78.1568 182.285 76.084L176.635 76.4694ZM179.166 83.871L174.699 87.3629C176.894 90.1872 179.765 92.2419 183.122 93.5815L185.215 88.3034L187.308 83.0252C185.632 82.3565 184.47 81.4563 183.633 80.3789L179.166 83.871ZM185.215 88.3034L183.194 93.6096C186.488 94.8715 190.064 95.4468 193.839 95.4468V89.7664V84.0861C191.208 84.0861 189.035 83.6858 187.236 82.997L185.215 88.3034ZM193.839 89.7664V95.4468C197.519 95.4468 200.986 94.9119 204.114 93.6724L202.034 88.3893L199.952 83.1065C198.447 83.7029 196.452 84.0861 193.839 84.0861V89.7664ZM202.034 88.3893L204.092 93.6811C207.178 92.4735 209.897 90.6601 211.928 88.0792L207.482 84.5595L203.037 81.0398C202.495 81.7294 201.581 82.4691 199.975 83.0977L202.034 88.3893ZM207.482 84.5595L211.928 88.0792C214.019 85.421 215.077 82.2961 215.077 78.9221H209.413H203.75C203.75 79.7941 203.52 80.4274 203.037 81.0398L207.482 84.5595ZM209.413 78.9221H215.077C215.077 75.7266 214.091 72.6916 211.922 70.1962L207.654 73.9305L203.386 77.6645C203.561 77.8658 203.75 78.1587 203.75 78.9221H209.413ZM207.654 73.9305L211.967 70.2488C210.078 68.0233 207.556 66.4264 204.798 65.2564L202.591 70.4878L200.384 75.7192C202.089 76.4425 202.942 77.1408 203.34 77.6119L207.654 73.9305ZM202.591 70.4878L204.822 65.2666C202.242 64.1576 199.216 63.2073 195.81 62.3837L194.483 67.9057L193.156 73.4279C196.156 74.1533 198.536 74.9245 200.36 75.7088L202.591 70.4878ZM194.483 67.9057L195.861 62.3965L186.294 59.9866L184.915 65.4959L183.536 71.0053L193.103 73.4151L194.483 67.9057ZM184.915 65.4959L186.254 59.9765C179.467 58.3207 174.548 55.8354 171.14 52.7824L167.368 57.0184L163.595 61.2546C168.768 65.8899 175.547 69.0564 183.577 71.0153L184.915 65.4959ZM167.368 57.0184L171.14 52.7824C168.222 50.1674 166.616 46.6274 166.638 41.5087L160.975 41.4837L155.312 41.4587C155.277 49.3645 157.932 56.1809 163.595 61.2546L167.368 57.0184ZM160.975 41.4837L166.638 41.4532C166.615 37.2086 167.72 33.7429 169.82 30.8152L165.222 27.4979L160.625 24.1806C157.005 29.2284 155.277 35.0865 155.312 41.5141L160.975 41.4837ZM165.222 27.4979L169.804 30.837C172.038 27.7526 175.167 25.2353 179.401 23.353L177.107 18.1599L174.812 12.9667C168.978 15.5598 164.184 19.2679 160.641 24.159L165.222 27.4979ZM177.107 18.1599L179.401 23.353C183.604 21.4849 188.523 20.4837 194.268 20.4837V14.8033V9.12299C187.199 9.12299 180.677 10.3595 174.812 12.9667L177.107 18.1599ZM194.268 14.8033V20.4837C200.148 20.4837 205.004 21.4921 208.981 23.3227L211.345 18.1599L213.706 12.997C207.958 10.3521 201.43 9.12299 194.268 9.12299V14.8033ZM211.345 18.1599L208.994 23.328C213.057 25.1874 216.011 27.6666 218.08 30.7032L222.756 27.4979L227.432 24.2929C224.066 19.3539 219.411 15.6078 213.695 12.9918L211.345 18.1599ZM222.756 27.4979L218.08 30.7032C220.117 33.6927 221.229 37.2085 221.299 41.4477L226.96 41.3545L232.623 41.2614C232.521 35.0007 230.828 29.2787 227.432 24.2929L222.756 27.4979ZM226.96 41.3545V35.6742H209.155V41.3545V47.0349H226.96V41.3545ZM253.796 104.139V109.82H257.91L259.182 105.897L253.796 104.139ZM233.89 104.139L228.536 102.286L225.943 109.82H233.89V104.139ZM264.222 16.0082V10.3279H260.186L258.869 14.1546L264.222 16.0082ZM288.163 16.0082L293.517 14.157L292.201 10.3279H288.163V16.0082ZM318.452 104.139V109.82H326.396L323.806 102.288L318.452 104.139ZM298.546 104.139L293.158 105.893L294.43 109.82H298.546V104.139ZM276.536 36.1476L281.922 34.3935L280.652 30.4672H276.536V36.1476ZM275.849 36.1476V30.4672H271.736L270.463 34.3903L275.849 36.1476ZM252.552 69.4979V63.8176H246.889V69.4979H252.552ZM299.574 69.4979H305.238V63.8176H299.574V69.4979ZM299.574 84.0431V89.7235H305.238V84.0431H299.574ZM252.552 84.0431H246.889V89.7235H252.552V84.0431ZM253.796 104.139V98.4591H233.89V104.139V109.82H253.796V104.139ZM233.89 104.139L239.244 105.993L269.576 17.8618L264.222 16.0082L258.869 14.1546L228.536 102.286L233.89 104.139ZM264.222 16.0082V21.6885H288.163V16.0082V10.3279H264.222V16.0082ZM288.163 16.0082L282.809 17.8595L313.098 105.991L318.452 104.139L323.806 102.288L293.517 14.157L288.163 16.0082ZM318.452 104.139V98.4591H298.546V104.139V109.82H318.452V104.139ZM298.546 104.139L303.931 102.385L281.922 34.3935L276.536 36.1476L271.149 37.9016L293.158 105.893L298.546 104.139ZM276.536 36.1476V30.4672H275.849V36.1476V41.8279H276.536V36.1476ZM275.849 36.1476L270.463 34.3903L248.411 102.382L253.796 104.139L259.182 105.897L281.235 37.9049L275.849 36.1476ZM252.552 69.4979V75.1782H299.574V69.4979V63.8176H252.552V69.4979ZM299.574 69.4979H293.911V84.0431H299.574H305.238V69.4979H299.574ZM299.574 84.0431V78.3628H252.552V84.0431V89.7235H299.574V84.0431ZM252.552 84.0431H258.216V69.4979H252.552H246.889V84.0431H252.552Z" fill="white"/>
</g>
<path d="M36.4423 206.385L11.3008 118.254H31.5942L46.1384 179.49H46.8678L62.9137 118.254H80.2896L96.2926 179.619H97.0649L111.609 118.254H131.903L106.761 206.385H88.6559L71.9234 148.764H71.237L54.5476 206.385H36.4423ZM164.456 207.677C157.677 207.677 151.842 206.3 146.951 203.545C142.089 200.762 138.342 196.833 135.71 191.755C133.079 186.648 131.763 180.609 131.763 173.637C131.763 166.838 133.079 160.871 135.71 155.736C138.342 150.6 142.046 146.598 146.822 143.73C151.627 140.861 157.262 139.426 163.726 139.426C168.074 139.426 172.121 140.129 175.868 141.535C179.643 142.912 182.933 144.992 185.736 147.775C188.567 150.557 190.77 154.057 192.343 158.275C193.917 162.463 194.702 167.369 194.702 172.992V178.027H139.057V166.666H177.498C177.498 164.027 176.926 161.688 175.782 159.652C174.638 157.615 173.051 156.023 171.02 154.875C169.018 153.699 166.687 153.111 164.027 153.111C161.252 153.111 158.792 153.756 156.647 155.047C154.531 156.309 152.872 158.016 151.67 160.168C150.469 162.291 149.854 164.658 149.826 167.268V178.07C149.826 181.34 150.426 184.166 151.627 186.547C152.857 188.928 154.588 190.764 156.819 192.056C159.05 193.347 161.696 193.993 164.756 193.993C166.787 193.993 168.646 193.705 170.333 193.131C172.021 192.557 173.465 191.696 174.667 190.549C175.868 189.401 176.783 187.996 177.412 186.332L194.317 187.451C193.458 191.526 191.699 195.081 189.039 198.122C186.408 201.135 183.004 203.488 178.828 205.181C174.681 206.843 169.89 207.677 164.456 207.677ZM206.973 206.385V118.254H225.25V151.389H225.807C226.609 149.611 227.766 147.803 229.282 145.967C230.828 144.103 232.829 142.553 235.289 141.32C237.777 140.057 240.867 139.426 244.556 139.426C249.362 139.426 253.795 140.688 257.857 143.213C261.918 145.709 265.165 149.482 267.596 154.531C270.027 159.551 271.243 165.848 271.243 173.422C271.243 180.795 270.056 187.02 267.681 192.099C265.336 197.147 262.133 200.978 258.07 203.589C254.038 206.169 249.519 207.461 244.514 207.461C240.967 207.461 237.949 206.874 235.461 205.696C233.001 204.52 230.985 203.043 229.412 201.264C227.838 199.457 226.637 197.636 225.807 195.799H224.993V206.385H206.973ZM224.863 173.336C224.863 177.266 225.407 180.695 226.494 183.621C227.581 186.547 229.154 188.828 231.213 190.463C233.273 192.069 235.776 192.874 238.721 192.874C241.696 192.874 244.212 192.056 246.272 190.42C248.331 188.756 249.891 186.461 250.95 183.535C252.035 180.58 252.579 177.18 252.579 173.336C252.579 169.521 252.05 166.164 250.991 163.266C249.934 160.369 248.375 158.102 246.315 156.467C244.256 154.832 241.724 154.014 238.721 154.014C235.748 154.014 233.229 154.803 231.17 156.381C229.141 157.959 227.581 160.197 226.494 163.094C225.407 165.992 224.863 169.406 224.863 173.336ZM338.268 159.135L321.537 160.168C321.25 158.734 320.634 157.443 319.691 156.295C318.747 155.119 317.503 154.186 315.958 153.498C314.443 152.781 312.627 152.422 310.51 152.422C307.679 152.422 305.291 153.025 303.344 154.229C301.4 155.406 300.428 156.984 300.428 158.963C300.428 160.541 301.057 161.875 302.316 162.965C303.575 164.055 305.732 164.93 308.794 165.59L320.721 168C327.128 169.32 331.904 171.443 335.051 174.369C338.196 177.295 339.771 181.139 339.771 185.902C339.771 190.234 338.498 194.034 335.952 197.306C333.435 200.576 329.973 203.129 325.569 204.965C321.193 206.773 316.145 207.677 310.424 207.677C301.7 207.677 294.75 205.855 289.573 202.21C284.425 198.539 281.407 193.548 280.52 187.236L298.497 186.289C299.04 188.957 300.356 190.993 302.444 192.4C304.532 193.777 307.207 194.466 310.467 194.466C313.67 194.466 316.245 193.849 318.19 192.614C320.162 191.353 321.165 189.732 321.193 187.752C321.165 186.088 320.465 184.725 319.09 183.664C317.718 182.574 315.602 181.742 312.742 181.168L301.328 178.887C294.893 177.596 290.102 175.359 286.957 172.174C283.838 168.99 282.279 164.93 282.279 159.996C282.279 155.75 283.423 152.092 285.711 149.022C288.029 145.953 291.274 143.586 295.452 141.922C299.656 140.258 304.575 139.426 310.21 139.426C318.533 139.426 325.082 141.191 329.86 144.719C334.664 148.248 337.468 153.053 338.268 159.135Z" fill="#5A5EFF"/>
<mask id="mask2_2395_356" style="mask-type:luminance" maskUnits="userSpaceOnUse" x="3" y="111" width="343" height="103">
<path d="M345.46 111.713H3.77637V213.959H345.46V111.713Z" fill="white"/>
<path d="M36.4423 206.385L11.3008 118.254H31.5942L46.1384 179.49H46.8678L62.9137 118.254H80.2896L96.2926 179.619H97.0649L111.609 118.254H131.903L106.761 206.385H88.6559L71.9234 148.764H71.237L54.5476 206.385H36.4423ZM164.456 207.677C157.677 207.677 151.842 206.3 146.951 203.545C142.089 200.762 138.342 196.833 135.71 191.755C133.079 186.648 131.763 180.609 131.763 173.637C131.763 166.838 133.079 160.871 135.71 155.736C138.342 150.6 142.046 146.598 146.822 143.73C151.627 140.861 157.262 139.426 163.726 139.426C168.074 139.426 172.121 140.129 175.868 141.535C179.643 142.912 182.933 144.992 185.736 147.775C188.567 150.557 190.77 154.057 192.343 158.275C193.917 162.463 194.702 167.369 194.702 172.992V178.027H139.057V166.666H177.498C177.498 164.027 176.926 161.688 175.782 159.652C174.638 157.615 173.051 156.023 171.02 154.875C169.018 153.699 166.687 153.111 164.027 153.111C161.252 153.111 158.792 153.756 156.647 155.047C154.531 156.309 152.872 158.016 151.67 160.168C150.469 162.291 149.854 164.658 149.826 167.268V178.07C149.826 181.34 150.426 184.166 151.627 186.547C152.857 188.928 154.588 190.764 156.819 192.056C159.05 193.347 161.696 193.993 164.756 193.993C166.787 193.993 168.646 193.705 170.333 193.131C172.021 192.557 173.465 191.696 174.667 190.549C175.868 189.401 176.783 187.996 177.412 186.332L194.317 187.451C193.458 191.526 191.699 195.081 189.039 198.122C186.408 201.135 183.004 203.488 178.828 205.181C174.681 206.843 169.89 207.677 164.456 207.677ZM206.973 206.385V118.254H225.25V151.389H225.807C226.609 149.611 227.766 147.803 229.282 145.967C230.828 144.103 232.829 142.553 235.289 141.32C237.777 140.057 240.867 139.426 244.556 139.426C249.362 139.426 253.795 140.688 257.857 143.213C261.918 145.709 265.165 149.482 267.596 154.531C270.027 159.551 271.243 165.848 271.243 173.422C271.243 180.795 270.056 187.02 267.681 192.099C265.336 197.147 262.133 200.978 258.07 203.589C254.038 206.169 249.519 207.461 244.514 207.461C240.967 207.461 237.949 206.874 235.461 205.696C233.001 204.52 230.985 203.043 229.412 201.264C227.838 199.457 226.637 197.636 225.807 195.799H224.993V206.385H206.973ZM224.863 173.336C224.863 177.266 225.407 180.695 226.494 183.621C227.581 186.547 229.154 188.828 231.213 190.463C233.273 192.069 235.776 192.874 238.721 192.874C241.696 192.874 244.212 192.056 246.272 190.42C248.331 188.756 249.891 186.461 250.95 183.535C252.035 180.58 252.579 177.18 252.579 173.336C252.579 169.521 252.05 166.164 250.991 163.266C249.934 160.369 248.375 158.102 246.315 156.467C244.256 154.832 241.724 154.014 238.721 154.014C235.748 154.014 233.229 154.803 231.17 156.381C229.141 157.959 227.581 160.197 226.494 163.094C225.407 165.992 224.863 169.406 224.863 173.336ZM338.268 159.135L321.537 160.168C321.25 158.734 320.634 157.443 319.691 156.295C318.747 155.119 317.503 154.186 315.958 153.498C314.443 152.781 312.627 152.422 310.51 152.422C307.679 152.422 305.291 153.025 303.344 154.229C301.4 155.406 300.428 156.984 300.428 158.963C300.428 160.541 301.057 161.875 302.316 162.965C303.575 164.055 305.732 164.93 308.794 165.59L320.721 168C327.128 169.32 331.904 171.443 335.051 174.369C338.196 177.295 339.771 181.139 339.771 185.902C339.771 190.234 338.498 194.034 335.952 197.306C333.435 200.576 329.973 203.129 325.569 204.965C321.193 206.773 316.145 207.677 310.424 207.677C301.7 207.677 294.75 205.855 289.573 202.21C284.425 198.539 281.407 193.548 280.52 187.236L298.497 186.289C299.04 188.957 300.356 190.993 302.444 192.4C304.532 193.777 307.207 194.466 310.467 194.466C313.67 194.466 316.245 193.849 318.19 192.614C320.162 191.353 321.165 189.732 321.193 187.752C321.165 186.088 320.465 184.725 319.09 183.664C317.718 182.574 315.602 181.742 312.742 181.168L301.328 178.887C294.893 177.596 290.102 175.359 286.957 172.174C283.838 168.99 282.279 164.93 282.279 159.996C282.279 155.75 283.423 152.092 285.711 149.022C288.029 145.953 291.274 143.586 295.452 141.922C299.656 140.258 304.575 139.426 310.21 139.426C318.533 139.426 325.082 141.191 329.86 144.719C334.664 148.248 337.468 153.053 338.268 159.135Z" fill="black"/>
</mask>
<g mask="url(#mask2_2395_356)">
<path d="M36.4425 206.385L30.9977 207.947L32.1724 212.066H36.4425V206.385ZM11.301 118.254V112.574H3.79004L5.85626 119.817L11.301 118.254ZM31.5944 118.254L37.1034 116.938L36.0671 112.574H31.5944V118.254ZM46.1386 179.49L40.6296 180.806L41.6661 185.17H46.1386V179.49ZM46.868 179.49V185.17H51.2352L52.3454 180.934L46.868 179.49ZM62.914 118.254V112.574H58.5468L57.4366 116.81L62.914 118.254ZM80.2898 118.254L85.7688 116.817L84.6624 112.574H80.2898V118.254ZM96.2929 179.619L90.814 181.056L91.9205 185.299H96.2929V179.619ZM97.0652 179.619V185.299H101.54L102.575 180.933L97.0652 179.619ZM111.61 118.254V112.574H107.135L106.1 116.94L111.61 118.254ZM131.903 118.254L137.348 119.817L139.414 112.574H131.903V118.254ZM106.761 206.385V212.066H111.032L112.206 207.947L106.761 206.385ZM88.6562 206.385L83.2189 207.974L84.407 212.066H88.6562V206.385ZM71.9237 148.764L77.361 147.176L76.1728 143.084H71.9237V148.764ZM71.2373 148.764V143.084H66.9851L65.7988 147.18L71.2373 148.764ZM54.5478 206.385V212.066H58.8L59.9862 207.97L54.5478 206.385ZM36.4425 206.385L41.8872 204.823L16.7458 116.692L11.301 118.254L5.85626 119.817L30.9977 207.947L36.4425 206.385ZM11.301 118.254V123.934H31.5944V118.254V112.574H11.301V118.254ZM31.5944 118.254L26.0854 119.571L40.6296 180.806L46.1386 179.49L51.6478 178.173L37.1034 116.938L31.5944 118.254ZM46.1386 179.49V185.17H46.868V179.49V173.81H46.1386V179.49ZM46.868 179.49L52.3454 180.934L68.3913 119.698L62.914 118.254L57.4366 116.81L41.3907 178.046L46.868 179.49ZM62.914 118.254V123.934H80.2898V118.254V112.574H62.914V118.254ZM80.2898 118.254L74.811 119.692L90.814 181.056L96.2929 179.619L101.772 178.181L85.7688 116.817L80.2898 118.254ZM96.2929 179.619V185.299H97.0652V179.619V173.938H96.2929V179.619ZM97.0652 179.619L102.575 180.933L117.119 119.568L111.61 118.254L106.1 116.94L91.5556 178.305L97.0652 179.619ZM111.61 118.254V123.934H131.903V118.254V112.574H111.61V118.254ZM131.903 118.254L126.458 116.692L101.317 204.823L106.761 206.385L112.206 207.947L137.348 119.817L131.903 118.254ZM106.761 206.385V200.705H88.6562V206.385V212.066H106.761V206.385ZM88.6562 206.385L94.0935 204.797L77.361 147.176L71.9237 148.764L66.4864 150.353L83.2189 207.974L88.6562 206.385ZM71.9237 148.764V143.084H71.2373V148.764V154.445H71.9237V148.764ZM71.2373 148.764L65.7988 147.18L49.1094 204.8L54.5478 206.385L59.9862 207.97L76.6757 150.349L71.2373 148.764ZM54.5478 206.385V200.705H36.4425V206.385V212.066H54.5478V206.385ZM146.951 203.545L144.145 208.479L144.162 208.489L144.179 208.498L146.951 203.545ZM135.711 191.755L130.679 194.362L130.686 194.373L135.711 191.755ZM146.823 143.73L143.926 138.848L143.913 138.856L146.823 143.73ZM175.868 141.535L173.884 146.855L173.909 146.864L173.933 146.873L175.868 141.535ZM185.736 147.775L181.752 151.812L181.762 151.822L181.773 151.832L185.736 147.775ZM192.343 158.275L187.039 160.265L187.044 160.277L192.343 158.275ZM194.703 178.027V183.707H200.366V178.027H194.703ZM139.057 178.027H133.394V183.707H139.057V178.027ZM139.057 166.666V160.986H133.394V166.666H139.057ZM177.499 166.666V172.346H183.162V166.666H177.499ZM171.02 154.875L168.158 159.776L168.199 159.8L168.24 159.824L171.02 154.875ZM156.647 155.047L159.542 159.93L159.561 159.918L156.647 155.047ZM151.671 160.168L156.596 162.972L156.604 162.958L156.612 162.943L151.671 160.168ZM149.826 167.268L144.163 167.206L144.163 167.237V167.268H149.826ZM151.628 186.547L146.575 189.112L146.587 189.136L146.599 189.16L151.628 186.547ZM177.413 186.332L177.786 180.664L173.604 180.387L172.118 184.317L177.413 186.332ZM194.317 187.451L199.858 188.625L201.208 182.214L194.689 181.783L194.317 187.451ZM189.039 198.122L184.783 194.377L184.78 194.379L189.039 198.122ZM178.829 205.181L180.932 210.454L180.95 210.447L178.829 205.181ZM164.456 207.677V201.996C158.446 201.996 153.608 200.779 149.724 198.592L146.951 203.545L144.179 208.498C150.077 211.819 156.908 213.357 164.456 213.357V207.677ZM146.951 203.545L149.758 198.611C145.86 196.38 142.875 193.262 140.736 189.134L135.711 191.755L130.686 194.373C133.809 200.402 138.317 205.143 144.145 208.479L146.951 203.545ZM135.711 191.755L140.742 189.146C138.605 185 137.427 179.892 137.427 173.637H131.763H126.1C126.1 181.325 127.553 188.295 130.679 194.362L135.711 191.755ZM131.763 173.637H137.427C137.427 167.581 138.595 162.533 140.747 158.332L135.711 155.736L130.674 153.139C127.563 159.209 126.1 166.095 126.1 173.637H131.763ZM135.711 155.736L140.747 158.332C142.913 154.107 145.894 150.908 149.732 148.603L146.823 143.73L143.913 138.856C138.197 142.289 133.771 147.094 130.674 153.139L135.711 155.736ZM146.823 143.73L149.719 148.611C153.519 146.342 158.121 145.107 163.727 145.107V139.426V133.746C156.404 133.746 149.736 135.379 143.926 138.848L146.823 143.73ZM163.727 139.426V145.107C167.456 145.107 170.825 145.707 173.884 146.855L175.868 141.535L177.852 136.214C173.418 134.551 168.693 133.746 163.727 133.746V139.426ZM175.868 141.535L173.933 146.873C176.955 147.975 179.541 149.617 181.752 151.812L185.736 147.775L189.721 143.737C186.325 140.367 182.333 137.848 177.804 136.196L175.868 141.535ZM185.736 147.775L181.773 151.832C183.938 153.96 185.718 156.724 187.039 160.265L192.343 158.275L197.647 156.284C195.822 151.391 193.198 147.155 189.7 143.717L185.736 147.775ZM192.343 158.275L187.044 160.277C188.323 163.685 189.039 167.885 189.039 172.992H194.703H200.366C200.366 166.853 199.509 161.241 197.644 156.272L192.343 158.275ZM194.703 172.992H189.039V178.027H194.703H200.366V172.992H194.703ZM194.703 178.027V172.346H139.057V178.027V183.707H194.703V178.027ZM139.057 178.027H144.72V166.666H139.057H133.394V178.027H139.057ZM139.057 166.666V172.346H177.499V166.666V160.986H139.057V166.666ZM177.499 166.666H183.162C183.162 163.178 182.398 159.857 180.717 156.863L175.782 159.652L170.848 162.44C171.455 163.521 171.835 164.875 171.835 166.666H177.499ZM175.782 159.652L180.717 156.863C179.065 153.922 176.732 151.583 173.8 149.926L171.02 154.875L168.24 159.824C169.37 160.462 170.212 161.307 170.848 162.44L175.782 159.652ZM171.02 154.875L173.882 149.974C170.891 148.216 167.543 147.43 164.027 147.43V153.111V158.791C165.83 158.791 167.144 159.181 168.158 159.776L171.02 154.875ZM164.027 153.111V147.43C160.341 147.43 156.853 148.299 153.734 150.176L156.647 155.047L159.561 159.918C160.733 159.213 162.164 158.791 164.027 158.791V153.111ZM156.647 155.047L153.753 150.165C150.783 151.936 148.418 154.369 146.729 157.393L151.671 160.168L156.612 162.943C157.326 161.664 158.279 160.683 159.542 159.93L156.647 155.047ZM151.671 160.168L146.745 157.364C145.038 160.382 144.201 163.703 144.163 167.206L149.826 167.268L155.489 167.331C155.508 165.613 155.901 164.2 156.596 162.972L151.671 160.168ZM149.826 167.268H144.163V178.07H149.826H155.489V167.268H149.826ZM149.826 178.07H144.163C144.163 182.033 144.892 185.776 146.575 189.112L151.628 186.547L156.681 183.982C155.961 182.556 155.489 180.647 155.489 178.07H149.826ZM151.628 186.547L146.599 189.16C148.307 192.467 150.783 195.121 153.989 196.975L156.819 192.056L159.649 187.135C158.393 186.408 157.408 185.39 156.656 183.934L151.628 186.547ZM156.819 192.056L153.989 196.975C157.23 198.851 160.89 199.673 164.756 199.673V193.993V188.311C162.502 188.311 160.87 187.842 159.649 187.135L156.819 192.056ZM164.756 193.993V199.673C167.32 199.673 169.803 199.309 172.152 198.51L170.334 193.131L168.516 187.751C167.489 188.1 166.254 188.311 164.756 188.311V193.993ZM170.334 193.131L172.152 198.51C174.56 197.692 176.732 196.42 178.573 194.663L174.667 190.548L170.761 186.436C170.199 186.973 169.482 187.423 168.516 187.751L170.334 193.131ZM174.667 190.548L178.573 194.663C180.43 192.889 181.799 190.749 182.708 188.347L177.413 186.332L172.118 184.317C171.768 185.243 171.306 185.915 170.761 186.436L174.667 190.548ZM177.413 186.332L177.04 192.001L193.944 193.118L194.317 187.451L194.689 181.783L177.786 180.664L177.413 186.332ZM194.317 187.451L188.776 186.277C188.113 189.426 186.782 192.09 184.783 194.377L189.039 198.122L193.296 201.869C196.617 198.073 198.805 193.623 199.858 188.625L194.317 187.451ZM189.039 198.122L184.78 194.379C182.804 196.642 180.167 198.51 176.707 199.913L178.829 205.181L180.95 210.447C185.842 208.464 190.013 205.628 193.3 201.866L189.039 198.122ZM178.829 205.181L176.725 199.906C173.375 201.25 169.322 201.996 164.456 201.996V207.677V213.357C170.459 213.357 175.988 212.439 180.932 210.454L178.829 205.181ZM206.973 206.385H201.31V212.066H206.973V206.385ZM206.973 118.254V112.574H201.31V118.254H206.973ZM225.25 118.254H230.913V112.574H225.25V118.254ZM225.25 151.389H219.587V157.07H225.25V151.389ZM225.807 151.389V157.07H229.464L230.97 153.727L225.807 151.389ZM229.282 145.967L224.927 142.337L224.922 142.344L229.282 145.967ZM235.289 141.32L237.823 146.4L237.845 146.389L235.289 141.32ZM257.857 143.213L254.873 148.041L254.886 148.049L254.897 148.057L257.857 143.213ZM267.596 154.531L262.496 157.001L262.501 157.012L267.596 154.531ZM267.681 192.099L262.554 189.687L262.548 189.7L267.681 192.099ZM258.071 203.589L261.117 208.375L261.127 208.371L258.071 203.589ZM235.461 205.696L233.024 210.823L233.047 210.835L235.461 205.696ZM229.413 201.263L225.146 204.999L225.16 205.016L225.175 205.033L229.413 201.263ZM225.807 195.799L230.966 193.455L229.46 190.119H225.807V195.799ZM224.993 195.799V190.119H219.33V195.799H224.993ZM224.993 206.385V212.066H230.657V206.385H224.993ZM231.214 190.463L227.699 194.917L227.717 194.932L227.736 194.947L231.214 190.463ZM246.272 190.42L249.787 194.873L249.806 194.858L249.825 194.843L246.272 190.42ZM250.95 183.535L245.636 181.569L245.63 181.583L245.625 181.598L250.95 183.535ZM231.17 156.381L227.733 151.867L227.717 151.879L227.702 151.891L231.17 156.381ZM206.973 206.385H212.636V118.254H206.973H201.31V206.385H206.973ZM206.973 118.254V123.934H225.25V118.254V112.574H206.973V118.254ZM225.25 118.254H219.587V151.389H225.25H230.913V118.254H225.25ZM225.25 151.389V157.07H225.807V151.389V145.709H225.25V151.389ZM225.807 151.389L230.97 153.727C231.521 152.5 232.384 151.118 233.645 149.59L229.282 145.967L224.922 142.344C223.151 144.488 221.696 146.722 220.646 149.051L225.807 151.389ZM229.282 145.967L233.639 149.597C234.617 148.415 235.967 147.331 237.823 146.4L235.289 141.32L232.758 136.239C229.692 137.776 227.038 139.79 224.927 142.337L229.282 145.967ZM235.289 141.32L237.845 146.389C239.327 145.637 241.479 145.107 244.556 145.107V139.426V133.746C240.254 133.746 236.227 134.478 232.733 136.251L235.289 141.32ZM244.556 139.426V145.107C248.315 145.107 251.713 146.077 254.873 148.041L257.857 143.213L260.84 138.385C255.877 135.3 250.41 133.746 244.556 133.746V139.426ZM257.857 143.213L254.897 148.057C257.884 149.891 260.453 152.759 262.496 157.001L267.596 154.531L272.695 152.06C269.877 146.204 265.954 141.527 260.815 138.37L257.857 143.213ZM267.596 154.531L262.501 157.012C264.449 161.035 265.58 166.417 265.58 173.422H271.243H276.907C276.907 165.28 275.604 158.068 272.689 152.049L267.596 154.531ZM271.243 173.422H265.58C265.58 180.212 264.483 185.562 262.554 189.687L267.681 192.099L272.808 194.51C275.629 188.479 276.907 181.378 276.907 173.422H271.243ZM267.681 192.099L262.548 189.7C260.587 193.924 258.042 196.859 255.016 198.806L258.071 203.589L261.127 208.371C266.222 205.096 270.086 200.372 272.816 194.498L267.681 192.099ZM258.071 203.589L255.024 198.8C251.945 200.771 248.492 201.78 244.515 201.78V207.461V213.141C250.546 213.141 256.132 211.568 261.117 208.375L258.071 203.589ZM244.515 207.461V201.78C241.57 201.78 239.423 201.29 237.875 200.559L235.461 205.696L233.047 210.835C236.477 212.456 240.365 213.141 244.515 213.141V207.461ZM235.461 205.696L237.898 200.569C236.022 199.671 234.649 198.626 233.649 197.496L229.413 201.263L225.175 205.033C227.321 207.461 229.981 209.369 233.024 210.823L235.461 205.696ZM229.413 201.263L233.679 197.528C232.401 196.062 231.529 194.701 230.966 193.455L225.807 195.799L220.65 198.143C221.746 200.57 223.276 202.852 225.146 204.999L229.413 201.263ZM225.807 195.799V190.119H224.993V195.799V201.479H225.807V195.799ZM224.993 195.799H219.33V206.385H224.993H230.657V195.799H224.993ZM224.993 206.385V200.705H206.973V206.385V212.066H224.993V206.385ZM224.863 173.336H219.2C219.2 177.776 219.813 181.903 221.188 185.604L226.494 183.621L231.801 181.638C231.002 179.486 230.526 176.757 230.526 173.336H224.863ZM226.494 183.621L221.188 185.604C222.568 189.321 224.689 192.527 227.699 194.917L231.214 190.463L234.729 186.01C233.62 185.129 232.595 183.774 231.801 181.638L226.494 183.621ZM231.214 190.463L227.736 194.947C230.917 197.427 234.687 198.554 238.721 198.554V192.874V187.193C236.864 187.193 235.629 186.711 234.691 185.979L231.214 190.463ZM238.721 192.874V198.554C242.795 198.554 246.597 197.408 249.787 194.873L246.272 190.42L242.757 185.966C241.83 186.703 240.599 187.193 238.721 187.193V192.874ZM246.272 190.42L249.825 194.843C252.821 192.423 254.924 189.202 256.274 185.472L250.95 183.535L245.625 181.598C244.858 183.72 243.843 185.089 242.719 185.996L246.272 190.42ZM250.95 183.535L256.262 185.501C257.625 181.795 258.242 177.708 258.242 173.336H252.579H246.916C246.916 176.653 246.446 179.365 245.636 181.569L250.95 183.535ZM252.579 173.336H258.242C258.242 169.006 257.644 164.964 256.309 161.312L250.992 163.266L245.674 165.22C246.457 167.364 246.916 170.035 246.916 173.336H252.579ZM250.992 163.266L256.309 161.312C254.954 157.602 252.842 154.404 249.831 152.014L246.316 156.467L242.801 160.921C243.909 161.801 244.913 163.136 245.674 165.22L250.992 163.266ZM246.316 156.467L249.831 152.014C246.631 149.472 242.808 148.334 238.721 148.334V154.014V159.695C240.641 159.695 241.883 160.192 242.801 160.921L246.316 156.467ZM238.721 154.014V148.334C234.696 148.334 230.923 149.424 227.733 151.867L231.17 156.381L234.61 160.895C235.538 160.183 236.798 159.695 238.721 159.695V154.014ZM231.17 156.381L227.702 151.891C224.69 154.232 222.575 157.412 221.193 161.094L226.494 163.094L231.795 165.095C232.588 162.981 233.59 161.686 234.64 160.872L231.17 156.381ZM226.494 163.094L221.193 161.094C219.812 164.777 219.2 168.899 219.2 173.336H224.863H230.526C230.526 169.913 231.002 167.206 231.795 165.095L226.494 163.094ZM338.268 159.135L338.617 164.805L344.679 164.431L343.884 158.391L338.268 159.135ZM321.537 160.168L315.983 161.282L316.952 166.142L321.884 165.838L321.537 160.168ZM319.691 156.295L315.279 159.857L315.302 159.883L315.323 159.91L319.691 156.295ZM315.959 153.498L313.542 158.635L313.601 158.663L313.659 158.689L315.959 153.498ZM303.345 154.229L306.269 159.094L306.295 159.078L306.322 159.062L303.345 154.229ZM308.795 165.59L307.603 171.144L307.639 171.151L307.675 171.159L308.795 165.59ZM320.721 168L321.86 162.436L321.839 162.431L320.721 168ZM335.952 197.306L331.487 193.809L331.478 193.822L331.468 193.834L335.952 197.306ZM325.569 204.965L327.725 210.218L327.742 210.21L325.569 204.965ZM289.574 202.21L286.291 206.84L286.306 206.851L286.321 206.86L289.574 202.21ZM280.52 187.236L280.223 181.563L274.051 181.888L274.913 188.028L280.52 187.236ZM298.497 186.289L304.045 185.152L303.069 180.36L298.201 180.616L298.497 186.289ZM302.444 192.4L299.288 197.117L299.311 197.13L299.333 197.145L302.444 192.4ZM318.19 192.614L321.216 197.416L321.235 197.405L318.19 192.614ZM321.193 187.752L326.857 187.834V187.744L326.855 187.654L321.193 187.752ZM319.09 183.664L315.575 188.117L315.604 188.14L315.634 188.163L319.09 183.664ZM312.742 181.168L313.852 175.598L313.848 175.597L312.742 181.168ZM301.329 178.887L300.219 184.457L300.222 184.458L301.329 178.887ZM286.957 172.174L282.915 176.154L282.934 176.173L286.957 172.174ZM285.711 149.022L281.198 145.594L281.186 145.608L281.177 145.621L285.711 149.022ZM295.452 141.922L293.372 136.638L293.36 136.643L295.452 141.922ZM329.86 144.719L326.502 149.293L326.515 149.302L329.86 144.719ZM338.268 159.135L337.921 153.466L321.188 154.498L321.537 160.168L321.884 165.838L338.617 164.805L338.268 159.135ZM321.537 160.168L327.089 159.054C326.617 156.685 325.588 154.538 324.061 152.68L319.691 156.295L315.323 159.91C315.683 160.347 315.883 160.783 315.983 161.282L321.537 160.168ZM319.691 156.295L324.102 152.733C322.528 150.771 320.525 149.317 318.26 148.307L315.959 153.498L313.659 158.689C314.482 159.056 314.968 159.467 315.279 159.857L319.691 156.295ZM315.959 153.498L318.375 148.36C315.932 147.205 313.25 146.742 310.511 146.742V152.422V158.102C312.004 158.102 312.953 158.357 313.542 158.635L315.959 153.498ZM310.511 152.422V146.742C306.877 146.742 303.399 147.519 300.37 149.397L303.345 154.229L306.322 159.062C307.181 158.53 308.479 158.102 310.511 158.102V152.422ZM303.345 154.229L300.421 149.365C297.081 151.385 294.765 154.661 294.765 158.963H300.428H306.091C306.091 158.939 306.093 158.977 306.073 159.056C306.05 159.137 306.014 159.217 305.974 159.282C305.937 159.344 305.916 159.355 305.95 159.323C305.988 159.289 306.082 159.207 306.269 159.094L303.345 154.229ZM300.428 158.963H294.765C294.765 162.296 296.19 165.165 298.614 167.264L302.316 162.965L306.018 158.666C305.959 158.615 305.944 158.593 305.954 158.605C305.963 158.619 305.989 158.657 306.02 158.718C306.048 158.779 306.069 158.842 306.08 158.898C306.091 158.951 306.091 158.977 306.091 158.963H300.428ZM302.316 162.965L298.614 167.264C300.981 169.315 304.3 170.431 307.603 171.144L308.795 165.59L309.984 160.037C308.672 159.754 307.696 159.454 307.001 159.172C306.658 159.033 306.412 158.911 306.244 158.814C306.076 158.717 306.012 158.662 306.018 158.666L302.316 162.965ZM308.795 165.59L307.675 171.159L319.602 173.568L320.721 168L321.839 162.431L309.912 160.022L308.795 165.59ZM320.721 168L319.581 173.564C325.465 174.776 329.113 176.592 331.2 178.534L335.051 174.369L338.902 170.204C334.698 166.293 328.79 163.863 321.86 162.436L320.721 168ZM335.051 174.369L331.2 178.534C333.062 180.264 334.108 182.533 334.108 185.902H339.771H345.434C345.434 179.745 343.333 174.326 338.902 170.204L335.051 174.369ZM339.771 185.902H334.108C334.108 189.027 333.22 191.584 331.487 193.809L335.952 197.306L340.416 200.801C343.775 196.486 345.434 191.44 345.434 185.902H339.771ZM335.952 197.306L331.468 193.834C329.645 196.206 327.036 198.202 323.396 199.72L325.569 204.965L327.742 210.21C332.913 208.055 337.226 204.946 340.435 200.777L335.952 197.306ZM325.569 204.965L323.413 199.713C319.847 201.186 315.557 201.996 310.424 201.996V207.677V213.357C316.735 213.357 322.539 212.359 327.725 210.218L325.569 204.965ZM310.424 207.677V201.996C302.435 201.996 296.751 200.322 292.826 197.562L289.574 202.21L286.321 206.86C292.751 211.386 300.966 213.357 310.424 213.357V207.677ZM289.574 202.21L292.854 197.583C288.983 194.82 286.8 191.221 286.128 186.443L280.52 187.236L274.913 188.028C276.016 195.875 279.867 202.258 286.291 206.84L289.574 202.21ZM280.52 187.236L280.818 192.908L298.793 191.961L298.497 186.289L298.201 180.616L280.223 181.563L280.52 187.236ZM298.497 186.289L292.949 187.426C293.764 191.427 295.86 194.809 299.288 197.117L302.444 192.4L305.601 187.683C304.853 187.179 304.317 186.486 304.045 185.152L298.497 186.289ZM302.444 192.4L299.333 197.145C302.588 199.292 306.433 200.146 310.467 200.146V194.466V188.785C307.981 188.785 306.476 188.261 305.555 187.653L302.444 192.4ZM310.467 194.466V200.146C314.339 200.146 318.077 199.408 321.216 197.416L318.19 192.614L315.164 187.814C314.413 188.289 313.002 188.785 310.467 188.785V194.466ZM318.19 192.614L321.235 197.405C324.471 195.335 326.794 192.101 326.857 187.834L321.193 187.752L315.53 187.67C315.53 187.691 315.528 187.663 315.545 187.603C315.562 187.542 315.589 187.492 315.606 187.461C315.645 187.399 315.577 187.549 315.145 187.825L318.19 192.614ZM321.193 187.752L326.855 187.654C326.796 184.176 325.214 181.226 322.549 179.165L319.09 183.664L315.634 188.163C315.696 188.212 315.711 188.232 315.696 188.215C315.681 188.197 315.647 188.154 315.613 188.086C315.577 188.018 315.555 187.95 315.542 187.895C315.528 187.841 315.53 187.822 315.53 187.85L321.193 187.752ZM319.09 183.664L322.605 179.21C320.212 177.309 317.076 176.245 313.852 175.598L312.742 181.168L311.63 186.738C314.126 187.239 315.224 187.839 315.575 188.117L319.09 183.664ZM312.742 181.168L313.848 175.597L302.435 173.316L301.329 178.887L300.222 184.458L311.634 186.739L312.742 181.168ZM301.329 178.887L302.44 173.317C296.619 172.15 293.041 170.263 290.978 168.176L286.957 172.174L282.934 176.173C287.165 180.454 293.168 183.043 300.219 184.457L301.329 178.887ZM286.957 172.174L290.997 168.194C289.034 166.189 287.943 163.614 287.943 159.996H282.279H276.616C276.616 166.247 278.643 171.791 282.915 176.154L286.957 172.174ZM282.279 159.996H287.943C287.943 156.837 288.771 154.406 290.247 152.424L285.711 149.022L281.177 145.621C278.077 149.779 276.616 154.663 276.616 159.996H282.279ZM285.711 149.022L290.227 152.451C291.82 150.341 294.161 148.548 297.542 147.201L295.452 141.922L293.36 136.643C288.39 138.624 284.237 141.565 281.198 145.594L285.711 149.022ZM295.452 141.922L297.53 147.206C300.932 145.86 305.117 145.107 310.21 145.107V139.426V133.746C304.034 133.746 298.38 134.657 293.372 136.638L295.452 141.922ZM310.21 139.426V145.107C317.799 145.107 323.021 146.722 326.502 149.293L329.86 144.719L333.218 140.146C327.146 135.66 319.268 133.746 310.21 133.746V139.426ZM329.86 144.719L326.515 149.302C330.036 151.888 332.05 155.287 332.654 159.879L338.268 159.135L343.884 158.391C342.886 150.82 339.295 144.608 333.205 140.136L329.86 144.719Z" fill="white"/>
</g>
</g>
</g>
<defs>
<clipPath id="clip0_2395_356">
<rect width="370" height="231" fill="white"/>
</clipPath>
</defs>
</svg>
