<svg width="26" height="27" viewBox="0 0 26 27" fill="none" xmlns="http://www.w3.org/2000/svg">
<g clip-path="url(#clip0_2365_124)">
<path d="M8.45033 0.5H17.5503C21.017 0.5 23.8337 3.59833 23.8337 7.41167V17.4217C23.8337 19.2548 23.1717 21.0128 21.9933 22.309C20.815 23.6051 19.2168 24.3333 17.5503 24.3333H8.45033C4.98366 24.3333 2.16699 21.235 2.16699 17.4217V7.41167C2.16699 5.57858 2.82898 3.82057 4.00734 2.52438C5.18569 1.22819 6.78388 0.5 8.45033 0.5ZM8.23366 2.88333C7.19931 2.88333 6.20733 3.33531 5.47594 4.13985C4.74455 4.94438 4.33366 6.03555 4.33366 7.17333V17.66C4.33366 20.0314 6.07783 21.95 8.23366 21.95H17.767C18.8013 21.95 19.7933 21.498 20.5247 20.6935C21.2561 19.889 21.667 18.7978 21.667 17.66V7.17333C21.667 4.80192 19.9228 2.88333 17.767 2.88333H8.23366ZM18.6878 4.67083C19.047 4.67083 19.3914 4.82777 19.6454 5.10712C19.8993 5.38647 20.042 5.76535 20.042 6.16042C20.042 6.55548 19.8993 6.93436 19.6454 7.21371C19.3914 7.49306 19.047 7.65 18.6878 7.65C18.3287 7.65 17.9842 7.49306 17.7303 7.21371C17.4763 6.93436 17.3337 6.55548 17.3337 6.16042C17.3337 5.76535 17.4763 5.38647 17.7303 5.10712C17.9842 4.82777 18.3287 4.67083 18.6878 4.67083ZM13.0003 6.45833C14.4369 6.45833 15.8147 7.08608 16.8305 8.20349C17.8463 9.32089 18.417 10.8364 18.417 12.4167C18.417 13.9969 17.8463 15.5124 16.8305 16.6298C15.8147 17.7472 14.4369 18.375 13.0003 18.375C11.5637 18.375 10.186 17.7472 9.17016 16.6298C8.15434 15.5124 7.58366 13.9969 7.58366 12.4167C7.58366 10.8364 8.15434 9.32089 9.17016 8.20349C10.186 7.08608 11.5637 6.45833 13.0003 6.45833ZM13.0003 8.84167C12.1384 8.84167 11.3117 9.21832 10.7022 9.88876C10.0927 10.5592 9.75033 11.4685 9.75033 12.4167C9.75033 13.3648 10.0927 14.2741 10.7022 14.9446C11.3117 15.615 12.1384 15.9917 13.0003 15.9917C13.8623 15.9917 14.6889 15.615 15.2984 14.9446C15.9079 14.2741 16.2503 13.3648 16.2503 12.4167C16.2503 11.4685 15.9079 10.5592 15.2984 9.88876C14.6889 9.21832 13.8623 8.84167 13.0003 8.84167Z" fill="white"/>
</g>
<defs>
<clipPath id="clip0_2365_124">
<rect width="26" height="26" fill="white" transform="translate(0 0.5)"/>
</clipPath>
</defs>
</svg>
