<svg width="60" height="60" viewBox="0 0 60 60" fill="none" xmlns="http://www.w3.org/2000/svg">
<path d="M30 30C25.875 30 22.3437 28.5312 19.4062 25.5938C16.4687 22.6562 15 19.125 15 15C15 10.875 16.4687 7.34375 19.4062 4.40625C22.3437 1.46875 25.875 0 30 0C34.125 0 37.6562 1.46875 40.5937 4.40625C43.5312 7.34375 45 10.875 45 15C45 19.125 43.5312 22.6562 40.5937 25.5938C37.6562 28.5312 34.125 30 30 30ZM0 60V49.5C0 47.375 0.547501 45.4225 1.6425 43.6425C2.7375 41.8625 4.19 40.5025 6 39.5625C9.875 37.625 13.8125 36.1725 17.8125 35.205C21.8125 34.2375 25.875 33.7525 30 33.75C34.125 33.7475 38.1875 34.2325 42.1875 35.205C46.1875 36.1775 50.125 37.63 54 39.5625C55.8125 40.5 57.2662 41.86 58.3612 43.6425C59.4562 45.425 60.0025 47.3775 60 49.5V60H0ZM7.5 52.5H52.5V49.5C52.5 48.8125 52.3287 48.1875 51.9862 47.625C51.6437 47.0625 51.19 46.625 50.625 46.3125C47.25 44.625 43.8437 43.36 40.4062 42.5175C36.9687 41.675 33.5 41.2525 30 41.25C26.5 41.2475 23.0312 41.67 19.5937 42.5175C16.1562 43.365 12.75 44.63 9.375 46.3125C8.8125 46.625 8.35875 47.0625 8.01375 47.625C7.66875 48.1875 7.4975 48.8125 7.5 49.5V52.5ZM30 22.5C32.0625 22.5 33.8287 21.7663 35.2987 20.2987C36.7687 18.8313 37.5025 17.065 37.5 15C37.4975 12.935 36.7637 11.17 35.2987 9.705C33.8337 8.24 32.0675 7.505 30 7.5C27.9325 7.495 26.1675 8.23 24.705 9.705C23.2425 11.18 22.5075 12.945 22.5 15C22.4925 17.055 23.2275 18.8213 24.705 20.2987C26.1825 21.7763 27.9475 22.51 30 22.5Z" fill="#5A5EFF"/>
</svg>
