<svg width="41" height="41" viewBox="0 0 41 41" fill="none" xmlns="http://www.w3.org/2000/svg">
<g clip-path="url(#clip0_2222_75)">
<path d="M23.0625 19.4391V10.25H17.9375V21.5609L24.3438 27.9671L27.9671 24.3437L23.0625 19.4391Z" fill="white"/>
<path d="M20.5 0C15.0631 0 9.84881 2.15982 6.00431 6.00431C2.15982 9.84881 0 15.0631 0 20.5C0 25.9369 2.15982 31.1512 6.00431 34.9957C9.84881 38.8402 15.0631 41 20.5 41C25.9369 41 31.1512 38.8402 34.9957 34.9957C38.8402 31.1512 41 25.9369 41 20.5C41 15.0631 38.8402 9.84881 34.9957 6.00431C31.1512 2.15982 25.9369 0 20.5 0ZM5.125 20.5C5.125 18.4809 5.52269 16.4816 6.29535 14.6162C7.06802 12.7509 8.20053 11.0559 9.62823 9.62823C11.0559 8.20053 12.7509 7.06802 14.6162 6.29535C16.4816 5.52269 18.4809 5.125 20.5 5.125C22.5191 5.125 24.5184 5.52269 26.3838 6.29535C28.2491 7.06802 29.9441 8.20053 31.3718 9.62823C32.7995 11.0559 33.932 12.7509 34.7046 14.6162C35.4773 16.4816 35.875 18.4809 35.875 20.5C35.875 24.5777 34.2551 28.4884 31.3718 31.3718C28.4884 34.2551 24.5777 35.875 20.5 35.875C16.4223 35.875 12.5116 34.2551 9.62823 31.3718C6.74486 28.4884 5.125 24.5777 5.125 20.5Z" fill="white"/>
</g>
<defs>
<clipPath id="clip0_2222_75">
<rect width="41" height="41" fill="white"/>
</clipPath>
</defs>
</svg>
