<svg width="26" height="27" viewBox="0 0 26 27" fill="none" xmlns="http://www.w3.org/2000/svg">
<g clip-path="url(#clip0_2365_122)">
<path d="M13.0003 0.5C18.9836 0.5 23.8337 5.83509 23.8337 12.4167C23.8337 18.9982 18.9836 24.3333 13.0003 24.3333C11.0858 24.3369 9.20497 23.7796 7.55117 22.7186L2.17134 24.3333L3.63601 18.4131C2.67071 16.5934 2.16365 14.5235 2.16701 12.4167C2.16701 5.83509 7.01709 0.5 13.0003 0.5ZM9.30834 6.81583L9.09167 6.82536C8.95158 6.83598 8.81471 6.87645 8.68867 6.94453C8.57121 7.01783 8.46395 7.10933 8.37017 7.21623C8.24017 7.35089 8.1665 7.46767 8.08742 7.58088C7.68672 8.15395 7.47097 8.85752 7.47425 9.58049C7.47642 10.1644 7.61509 10.7328 7.83175 11.2643C8.27484 12.3392 9.00392 13.4772 9.96592 14.5319C10.1978 14.7857 10.4253 15.0407 10.6701 15.2778C11.8655 16.4354 13.2899 17.2703 14.8301 17.716L15.4454 17.8197C15.6458 17.8316 15.8462 17.8149 16.0477 17.8042C16.3632 17.7859 16.6712 17.6919 16.9502 17.5289C17.0919 17.4483 17.2304 17.3608 17.3651 17.2667C17.3651 17.2667 17.4109 17.2326 17.5005 17.1595C17.6467 17.0403 17.7367 16.9557 17.858 16.8163C17.949 16.713 18.0248 16.5931 18.0855 16.4564C18.17 16.2622 18.2545 15.8916 18.2892 15.5829C18.3152 15.347 18.3076 15.2183 18.3043 15.1384C18.3 15.0109 18.2036 14.8786 18.0985 14.8226L17.468 14.5116C17.468 14.5116 16.5255 14.06 15.9492 13.7716C15.8888 13.7427 15.8242 13.7261 15.7585 13.7227C15.6844 13.7142 15.6094 13.7233 15.5388 13.7494C15.4681 13.7755 15.4034 13.818 15.349 13.8741C15.3436 13.8717 15.271 13.9396 14.4877 14.9835C14.4428 15.05 14.3809 15.1002 14.3099 15.1278C14.2389 15.1554 14.162 15.1591 14.0891 15.1384C14.0185 15.1177 13.9493 15.0914 13.8822 15.0598C13.7478 14.9978 13.7012 14.974 13.6092 14.9311C12.9872 14.633 12.4115 14.2298 11.9029 13.7358C11.7664 13.6047 11.6397 13.4617 11.5097 13.3235C11.0835 12.8745 10.7121 12.3666 10.4047 11.8125L10.3408 11.6993C10.2955 11.6228 10.2585 11.5408 10.2303 11.455C10.1891 11.2798 10.2963 11.1392 10.2963 11.1392C10.2963 11.1392 10.5596 10.8222 10.682 10.6506C10.8012 10.4838 10.9019 10.3217 10.9669 10.2061C11.0948 9.9797 11.1348 9.74733 11.0677 9.56738C10.7643 8.75229 10.4509 7.94156 10.1273 7.13519C10.0634 6.97551 9.87384 6.86111 9.70159 6.83847C9.64309 6.83053 9.58459 6.82417 9.52609 6.8194C9.38063 6.81023 9.23477 6.81182 9.0895 6.82417L9.30834 6.81583Z" fill="#FFF4F4"/>
</g>
<defs>
<clipPath id="clip0_2365_122">
<rect width="26" height="26" fill="white" transform="translate(0 0.5)"/>
</clipPath>
</defs>
</svg>
