<svg width="47" height="47" viewBox="0 0 47 47" fill="none" xmlns="http://www.w3.org/2000/svg">
<g clip-path="url(#clip0_2222_79)">
<path d="M2.20312 47H22.7656C22.9604 47 23.1472 46.9226 23.2849 46.7849C23.4226 46.6472 23.5 46.4604 23.5 46.2656C23.5 46.0709 23.4226 45.8841 23.2849 45.7463C23.1472 45.6086 22.9604 45.5312 22.7656 45.5312H2.20312C2.00836 45.5312 1.82157 45.4539 1.68384 45.3162C1.54612 45.1784 1.46875 44.9916 1.46875 44.7969V2.20312C1.46875 2.00836 1.54612 1.82157 1.68384 1.68384C1.82157 1.54612 2.00836 1.46875 2.20312 1.46875H33.0469C33.2416 1.46875 33.4284 1.54612 33.5662 1.68384C33.7039 1.82157 33.7812 2.00836 33.7812 2.20312V9.54688C33.7812 9.74164 33.8586 9.92843 33.9963 10.0662C34.1341 10.2039 34.3209 10.2812 34.5156 10.2812C34.7104 10.2812 34.8972 10.2039 35.0349 10.0662C35.1726 9.92843 35.25 9.74164 35.25 9.54688V2.20312C35.25 0.988469 34.2615 0 33.0469 0H2.20312C0.988469 0 0 0.988469 0 2.20312V44.7969C0 46.0115 0.988469 47 2.20312 47Z" fill="white"/>
<path d="M26.4375 15.4219V44.7969C26.4375 46.0115 27.426 47 28.6406 47H44.7969C46.0115 47 47 46.0115 47 44.7969V15.4219C47 14.2072 46.0115 13.2188 44.7969 13.2188H28.6406C27.426 13.2188 26.4375 14.2072 26.4375 15.4219ZM45.5312 15.4219V44.7969C45.5312 44.9916 45.4539 45.1784 45.3162 45.3162C45.1784 45.4539 44.9916 45.5312 44.7969 45.5312H28.6406C28.4459 45.5312 28.2591 45.4539 28.1213 45.3162C27.9836 45.1784 27.9062 44.9916 27.9062 44.7969V15.4219C27.9062 15.2271 27.9836 15.0403 28.1213 14.9026C28.2591 14.7649 28.4459 14.6875 28.6406 14.6875H44.7969C44.9916 14.6875 45.1784 14.7649 45.3162 14.9026C45.4539 15.0403 45.5312 15.2271 45.5312 15.4219Z" fill="white"/>
<path d="M17.625 42.5938C18.4362 42.5938 19.0938 41.9362 19.0938 41.125C19.0938 40.3138 18.4362 39.6562 17.625 39.6562C16.8138 39.6562 16.1562 40.3138 16.1562 41.125C16.1562 41.9362 16.8138 42.5938 17.625 42.5938Z" fill="white"/>
<path d="M36.7188 42.5938C37.5299 42.5938 38.1875 41.9362 38.1875 41.125C38.1875 40.3138 37.5299 39.6562 36.7188 39.6562C35.9076 39.6562 35.25 40.3138 35.25 41.125C35.25 41.9362 35.9076 42.5938 36.7188 42.5938Z" fill="white"/>
</g>
<defs>
<clipPath id="clip0_2222_79">
<rect width="47" height="47" fill="white"/>
</clipPath>
</defs>
</svg>
