<svg width="65" height="65" viewBox="0 0 65 65" fill="none" xmlns="http://www.w3.org/2000/svg">
<g clip-path="url(#clip0_2339_2)">
<path d="M32.5003 0.416748C14.8096 0.416748 0.416992 14.8093 0.416992 32.5001C0.416992 50.1908 14.8096 64.5834 32.5003 64.5834C50.1911 64.5834 64.5837 50.1908 64.5837 32.5001C64.5837 14.8093 50.1911 0.416748 32.5003 0.416748ZM32.5003 58.1668C18.3484 58.1668 6.83366 46.652 6.83366 32.5001C6.83366 18.3481 18.3484 6.83342 32.5003 6.83342C46.6523 6.83342 58.167 18.3481 58.167 32.5001C58.167 46.652 46.6523 58.1668 32.5003 58.1668Z" fill="#5A5EFF"/>
<path d="M41.573 41.5732C39.8007 43.347 37.5477 44.5627 35.0922 45.0702C33.381 45.4142 31.6186 45.4142 29.9075 45.0702C29.084 44.9014 28.2792 44.6521 27.5044 44.3259C26.7419 44.0035 26.0124 43.6081 25.326 43.1452C23.9613 42.2162 22.7836 41.0386 21.8546 39.6738L16.5352 43.2575C17.2249 44.281 18.0174 45.2435 18.8869 46.1097C20.6718 47.9014 22.7928 49.3231 25.1283 50.2934C27.4638 51.2637 29.9679 51.7634 32.4969 51.764C35.0259 51.7646 37.5302 51.266 39.8661 50.2969C42.2021 49.3277 44.3238 47.907 46.1096 46.1162C46.9822 45.2467 47.7779 44.2842 48.4645 43.2575L43.1451 39.6738C42.6852 40.354 42.1612 40.9871 41.573 41.5732Z" fill="#5A5EFF"/>
<path d="M21.2705 32.5C23.9284 32.5 26.083 30.3454 26.083 27.6875C26.083 25.0296 23.9284 22.875 21.2705 22.875C18.6126 22.875 16.458 25.0296 16.458 27.6875C16.458 30.3454 18.6126 32.5 21.2705 32.5Z" fill="#5A5EFF"/>
<path d="M43.7288 26.0833C37.3122 26.0833 35.708 32.4999 35.708 32.4999H51.7497C51.7497 32.4999 50.1423 26.0833 43.7288 26.0833Z" fill="#5A5EFF"/>
</g>
<defs>
<clipPath id="clip0_2339_2">
<rect width="65" height="65" fill="white"/>
</clipPath>
</defs>
</svg>
