<svg width="26" height="27" viewBox="0 0 26 27" fill="none" xmlns="http://www.w3.org/2000/svg">
<g clip-path="url(#clip0_2365_126)">
<path d="M22.2315 0.500167H3.7691C3.56157 0.497015 3.3555 0.538594 3.16266 0.62253C2.96983 0.706465 2.794 0.831112 2.64523 0.989353C2.49645 1.14759 2.37764 1.33633 2.29559 1.54478C2.21353 1.75323 2.16984 1.97731 2.16699 2.20423V22.6291C2.16984 22.856 2.21353 23.0801 2.29559 23.2886C2.37764 23.497 2.49645 23.6857 2.64523 23.844C2.794 24.0022 2.96983 24.1269 3.16266 24.2108C3.3555 24.2947 3.56157 24.3363 3.7691 24.3332H22.2315C22.4391 24.3363 22.6452 24.2947 22.838 24.2108C23.0308 24.1269 23.2066 24.0022 23.3554 23.844C23.5042 23.6857 23.623 23.497 23.7051 23.2886C23.7871 23.0801 23.8308 22.856 23.8337 22.6291V2.20423C23.8308 1.97731 23.7871 1.75323 23.7051 1.54478C23.623 1.33633 23.5042 1.14759 23.3554 0.989353C23.2066 0.831112 23.0308 0.706465 22.838 0.62253C22.6452 0.538594 22.4391 0.497015 22.2315 0.500167ZM8.73892 20.4484H5.46931V9.72354H8.73892V20.4484ZM7.10411 8.22206C6.65319 8.22206 6.22074 8.0262 5.90189 7.67758C5.58304 7.32895 5.40391 6.85612 5.40391 6.36308C5.40391 5.87005 5.58304 5.39722 5.90189 5.04859C6.22074 4.69997 6.65319 4.50411 7.10411 4.50411C7.34355 4.47442 7.58603 4.50036 7.81567 4.58024C8.0453 4.66011 8.25692 4.79212 8.43665 4.96762C8.61639 5.14311 8.7602 5.35814 8.85867 5.59862C8.95713 5.8391 9.00803 6.09961 9.00803 6.36308C9.00803 6.62656 8.95713 6.88707 8.85867 7.12755C8.7602 7.36803 8.61639 7.58306 8.43665 7.75855C8.25692 7.93405 8.0453 8.06606 7.81567 8.14593C7.58603 8.22581 7.34355 8.25175 7.10411 8.22206ZM20.5313 20.4484H17.2617V14.6927C17.2617 13.2508 16.7931 12.3094 15.6051 12.3094C15.2375 12.3124 14.8795 12.4384 14.5794 12.6707C14.2793 12.9029 14.0515 13.2302 13.9267 13.6083C13.8414 13.8884 13.8045 14.1834 13.8177 14.4782V20.4365H10.5481V9.71162H13.8177V11.225C14.1148 10.6615 14.5468 10.1972 15.0672 9.88227C15.5877 9.56729 16.1768 9.41353 16.7713 9.43754C18.951 9.43754 20.5313 10.9748 20.5313 14.2756V20.4484Z" fill="#FFFEFE"/>
</g>
<defs>
<clipPath id="clip0_2365_126">
<rect width="26" height="26" fill="white" transform="translate(0 0.5)"/>
</clipPath>
</defs>
</svg>
